<svg width="24" height="24" viewBox="0 0 24 24" fill="none" xmlns="http://www.w3.org/2000/svg">
<path d="M4.80005 6.97261L1.88135 4.05481L3.15485 2.78131L6.07265 5.70001H19.7904C19.9307 5.7 20.0691 5.73278 20.1944 5.79574C20.3198 5.8587 20.4287 5.95009 20.5125 6.06262C20.5962 6.17515 20.6525 6.3057 20.6769 6.44385C20.7012 6.582 20.6929 6.72393 20.6526 6.85831L18.4926 14.0583C18.4371 14.2438 18.3232 14.4064 18.1679 14.522C18.0125 14.6376 17.8241 14.7 17.6304 14.7H6.60005V16.5H16.5V18.3H5.70005C5.46135 18.3 5.23243 18.2052 5.06365 18.0364C4.89487 17.8676 4.80005 17.6387 4.80005 17.4V6.97261ZM6.60005 7.50001V12.9H16.9608L18.5808 7.50001H6.60005ZM6.15005 21.9C5.79201 21.9 5.44863 21.7578 5.19545 21.5046C4.94228 21.2514 4.80005 20.9081 4.80005 20.55C4.80005 20.192 4.94228 19.8486 5.19545 19.5954C5.44863 19.3422 5.79201 19.2 6.15005 19.2C6.50809 19.2 6.85147 19.3422 7.10464 19.5954C7.35782 19.8486 7.50005 20.192 7.50005 20.55C7.50005 20.9081 7.35782 21.2514 7.10464 21.5046C6.85147 21.7578 6.50809 21.9 6.15005 21.9ZM16.95 21.9C16.592 21.9 16.2486 21.7578 15.9955 21.5046C15.7423 21.2514 15.6 20.9081 15.6 20.55C15.6 20.192 15.7423 19.8486 15.9955 19.5954C16.2486 19.3422 16.592 19.2 16.95 19.2C17.3081 19.2 17.6515 19.3422 17.9046 19.5954C18.1578 19.8486 18.3 20.192 18.3 20.55C18.3 20.9081 18.1578 21.2514 17.9046 21.5046C17.6515 21.7578 17.3081 21.9 16.95 21.9Z" fill="#FAFAFB"/>
</svg>
