<svg width="18" height="18" viewBox="0 0 18 18" fill="none" xmlns="http://www.w3.org/2000/svg">
<path d="M17.1 0.899994C17.3387 0.899994 17.5676 0.994815 17.7364 1.1636C17.9052 1.33238 18 1.5613 18 1.79999V16.2C18 16.4387 17.9052 16.6676 17.7364 16.8364C17.5676 17.0052 17.3387 17.1 17.1 17.1H0.9C0.661305 17.1 0.432387 17.0052 0.263604 16.8364C0.0948211 16.6676 0 16.4387 0 16.2V1.79999C0 1.5613 0.0948211 1.33238 0.263604 1.1636C0.432387 0.994815 0.661305 0.899994 0.9 0.899994H17.1ZM8.1 9.89999H1.8V15.3H8.1V9.89999ZM16.2 9.89999H9.9V15.3H16.2V9.89999ZM8.1 2.69999H1.8V8.09999H8.1V2.69999ZM16.2 2.69999H9.9V8.09999H16.2V2.69999Z" fill="#003366"/>
</svg>
